<?xml version="1.0" encoding="iso-8859-1"?>
<!-- Uploaded to: SVG Repo, www.svgrepo.com, Generator: SVG Repo Mixer Tools -->
<svg fill="#000000" height="800px" width="800px" version="1.1" id="Layer_1" xmlns="http://www.w3.org/2000/svg" xmlns:xlink="http://www.w3.org/1999/xlink" 
	 viewBox="0 0 491.52 491.52" xml:space="preserve">
<g>
	<g>
		<path d="M491.438,367.411c0-18.33-8.684-35.922-22.467-46.408L368.64,236.257V163.84c0-15.811-6.738-31.601-18.493-43.295
			c-11.715-11.633-27.709-18.616-42.947-18.145h-3.932c-4.198-25.948-11.735-52.531-23.306-78.868l-1.659-3.707
			C273.039,7.782,260.26,0,245.76,0c-14.5,0-27.279,7.782-32.522,19.743l-1.679,3.83c-11.592,26.378-19.128,52.982-23.347,78.828
			h-3.768h-0.328c-15.565,0-31.109,6.595-42.742,18.145c-11.756,11.694-18.493,27.484-18.493,43.295v72.417l-99.553,84.111
			C8.765,331.489,0.082,349.082,0.082,367.35L0,389.038v0.041v0.041v40.96c0,11.326,9.155,20.48,20.48,20.48
			s20.48-9.154,20.48-20.48V409.6h69.263L84.07,461.885c-3.789,7.598-2.499,16.773,3.256,23.019
			c3.953,4.301,9.462,6.615,15.073,6.615c2.56,0,5.141-0.471,7.598-1.454l102.4-40.96c2.028-0.819,3.85-1.966,5.489-3.318
			c8.868,3.092,18.35,4.71,27.873,4.71s19.005-1.618,27.894-4.71c1.618,1.352,3.441,2.499,5.468,3.318l102.4,40.96
			c2.458,0.983,5.038,1.454,7.598,1.454c5.612,0,11.121-2.314,15.073-6.615c5.755-6.246,7.045-15.421,3.256-23.019L381.297,409.6
			h69.263v20.48c0,11.326,9.155,20.48,20.48,20.48s20.48-9.154,20.48-20.48v-40.96v-0.041v-0.041L491.438,367.411z M143.36,348.16
			l-20.48-20.48l20.48-20.48l20.48,20.48L143.36,348.16z M266.117,151.368v253.174c-11.551,6.738-29.164,6.779-40.714,0
			l-0.02-253.891c-1.106-32.133,5.939-67.543,20.378-102.851C260.198,83.149,267.243,118.579,266.117,151.368z M348.16,348.16
			l-20.48-20.48l20.48-20.48l20.48,20.48L348.16,348.16z"/>
	</g>
</g>
</svg>